REM MD5 f01009e81b4135b7e027e835122913d6
FILE "PlayStation Underground Volume 2 Issue 1 (USA) (Disc 2).bin" BINARY
  TRACK 01 MODE2/2352
    INDEX 01 00:00:00
  TRACK 02 AUDIO
    INDEX 00 38:51:05
    INDEX 01 38:53:05
  TRACK 03 AUDIO
    INDEX 00 39:43:31
    INDEX 01 39:45:31
  TRACK 04 AUDIO
    INDEX 00 42:59:31
    INDEX 01 43:01:31
REM LEADOUT 43:07:27
